{
  "asset": {
    "version": "2.0",
    "generator": "room-viewer-generator"
  },
  "scene": 0,
  "scenes": [
    {
      "nodes": [
        0,
        1,
        2,
        3,
        4,
        5,
        6,
        7,
        8,
        9,
        10,
        11,
        12,
        13,
        14,
        15,
        16
      ],
      "name": "RoomScene"
    }
  ],
  "nodes": [
    {
      "mesh": 0,
      "translation": [
        0,
        1.4,
        -6
      ],
      "name": "wall"
    },
    {
      "mesh": 1,
      "translation": [
        0,
        1.4,
        1
      ],
      "name": "wall"
    },
    {
      "mesh": 2,
      "translation": [
        -7,
        1.4,
        -2.5
      ],
      "name": "wall"
    },
    {
      "mesh": 3,
      "translation": [
        7,
        1.4,
        -2.5
      ],
      "name": "wall"
    },
    {
      "mesh": 4,
      "translation": [
        -1.5,
        1.1,
        -5.9
      ],
      "name": "wall"
    },
    {
      "mesh": 5,
      "translation": [
        2,
        1.1,
        -5.9
      ],
      "name": "wall"
    },
    {
      "mesh": 6,
      "translation": [
        0,
        0,
        -2.5
      ],
      "name": "floor"
    },
    {
      "mesh": 7,
      "translation": [
        0,
        2.8,
        -2.5
      ],
      "name": "ceiling"
    },
    {
      "mesh": 8,
      "translation": [
        0,
        0.45,
        -1.9
      ],
      "name": "沙发"
    },
    {
      "mesh": 9,
      "translation": [
        0,
        0.8,
        -5.5
      ],
      "name": "电视柜"
    },
    {
      "mesh": 10,
      "translation": [
        0,
        0.35,
        -3.45
      ],
      "name": "茶几"
    },
    {
      "mesh": 11,
      "translation": [
        2.8,
        1.1,
        -5.5
      ],
      "name": "书架"
    },
    {
      "mesh": 12,
      "translation": [
        5.1,
        0.45,
        -2.5
      ],
      "name": "橱柜"
    },
    {
      "mesh": 13,
      "translation": [
        6.2,
        1,
        -0.5
      ],
      "name": "冰箱"
    },
    {
      "mesh": 14,
      "translation": [
        -4.5,
        0.44999999999999996,
        -2.65
      ],
      "name": "床"
    },
    {
      "mesh": 15,
      "translation": [
        -6.2,
        1.3,
        -2.65
      ],
      "name": "衣柜"
    },
    {
      "mesh": 16,
      "translation": [
        -3.2,
        0.275,
        -1.7
      ],
      "name": "床头柜"
    }
  ],
  "meshes": [
    {
      "primitives": [
        {
          "attributes": {
            "POSITION": 0
          },
          "indices": 1,
          "material": 0
        }
      ],
      "name": "wall"
    },
    {
      "primitives": [
        {
          "attributes": {
            "POSITION": 2
          },
          "indices": 3,
          "material": 1
        }
      ],
      "name": "wall"
    },
    {
      "primitives": [
        {
          "attributes": {
            "POSITION": 4
          },
          "indices": 5,
          "material": 2
        }
      ],
      "name": "wall"
    },
    {
      "primitives": [
        {
          "attributes": {
            "POSITION": 6
          },
          "indices": 7,
          "material": 3
        }
      ],
      "name": "wall"
    },
    {
      "primitives": [
        {
          "attributes": {
            "POSITION": 8
          },
          "indices": 9,
          "material": 4
        }
      ],
      "name": "wall"
    },
    {
      "primitives": [
        {
          "attributes": {
            "POSITION": 10
          },
          "indices": 11,
          "material": 5
        }
      ],
      "name": "wall"
    },
    {
      "primitives": [
        {
          "attributes": {
            "POSITION": 12
          },
          "indices": 13,
          "material": 6
        }
      ],
      "name": "floor"
    },
    {
      "primitives": [
        {
          "attributes": {
            "POSITION": 14
          },
          "indices": 15,
          "material": 7
        }
      ],
      "name": "ceiling"
    },
    {
      "primitives": [
        {
          "attributes": {
            "POSITION": 16
          },
          "indices": 17,
          "material": 8
        }
      ],
      "name": "沙发"
    },
    {
      "primitives": [
        {
          "attributes": {
            "POSITION": 18
          },
          "indices": 19,
          "material": 9
        }
      ],
      "name": "电视柜"
    },
    {
      "primitives": [
        {
          "attributes": {
            "POSITION": 20
          },
          "indices": 21,
          "material": 10
        }
      ],
      "name": "茶几"
    },
    {
      "primitives": [
        {
          "attributes": {
            "POSITION": 22
          },
          "indices": 23,
          "material": 11
        }
      ],
      "name": "书架"
    },
    {
      "primitives": [
        {
          "attributes": {
            "POSITION": 24
          },
          "indices": 25,
          "material": 12
        }
      ],
      "name": "橱柜"
    },
    {
      "primitives": [
        {
          "attributes": {
            "POSITION": 26
          },
          "indices": 27,
          "material": 13
        }
      ],
      "name": "冰箱"
    },
    {
      "primitives": [
        {
          "attributes": {
            "POSITION": 28
          },
          "indices": 29,
          "material": 14
        }
      ],
      "name": "床"
    },
    {
      "primitives": [
        {
          "attributes": {
            "POSITION": 30
          },
          "indices": 31,
          "material": 15
        }
      ],
      "name": "衣柜"
    },
    {
      "primitives": [
        {
          "attributes": {
            "POSITION": 32
          },
          "indices": 33,
          "material": 16
        }
      ],
      "name": "床头柜"
    }
  ],
  "materials": [
    {
      "pbrMetallicRoughness": {
        "baseColorFactor": [
          0.94,
          0.92,
          0.88,
          1
        ],
        "metallicFactor": 0,
        "roughnessFactor": 0.85
      },
      "name": "mat_wall_0"
    },
    {
      "pbrMetallicRoughness": {
        "baseColorFactor": [
          0.94,
          0.92,
          0.88,
          1
        ],
        "metallicFactor": 0,
        "roughnessFactor": 0.85
      },
      "name": "mat_wall_1"
    },
    {
      "pbrMetallicRoughness": {
        "baseColorFactor": [
          0.94,
          0.92,
          0.88,
          1
        ],
        "metallicFactor": 0,
        "roughnessFactor": 0.85
      },
      "name": "mat_wall_2"
    },
    {
      "pbrMetallicRoughness": {
        "baseColorFactor": [
          0.94,
          0.92,
          0.88,
          1
        ],
        "metallicFactor": 0,
        "roughnessFactor": 0.85
      },
      "name": "mat_wall_3"
    },
    {
      "pbrMetallicRoughness": {
        "baseColorFactor": [
          0.94,
          0.92,
          0.88,
          1
        ],
        "metallicFactor": 0,
        "roughnessFactor": 0.85
      },
      "name": "mat_wall_4"
    },
    {
      "pbrMetallicRoughness": {
        "baseColorFactor": [
          0.94,
          0.92,
          0.88,
          1
        ],
        "metallicFactor": 0,
        "roughnessFactor": 0.85
      },
      "name": "mat_wall_5"
    },
    {
      "pbrMetallicRoughness": {
        "baseColorFactor": [
          0.82,
          0.76,
          0.65,
          1
        ],
        "metallicFactor": 0,
        "roughnessFactor": 0.85
      },
      "name": "mat_floor_6"
    },
    {
      "pbrMetallicRoughness": {
        "baseColorFactor": [
          0.95,
          0.95,
          0.97,
          1
        ],
        "metallicFactor": 0,
        "roughnessFactor": 0.85
      },
      "name": "mat_ceiling_7"
    },
    {
      "pbrMetallicRoughness": {
        "baseColorFactor": [
          0.75,
          0.68,
          0.6,
          1
        ],
        "metallicFactor": 0,
        "roughnessFactor": 0.85
      },
      "name": "mat_沙发_8"
    },
    {
      "pbrMetallicRoughness": {
        "baseColorFactor": [
          0.35,
          0.28,
          0.22,
          1
        ],
        "metallicFactor": 0,
        "roughnessFactor": 0.85
      },
      "name": "mat_电视柜_9"
    },
    {
      "pbrMetallicRoughness": {
        "baseColorFactor": [
          0.9,
          0.85,
          0.75,
          1
        ],
        "metallicFactor": 0,
        "roughnessFactor": 0.85
      },
      "name": "mat_茶几_10"
    },
    {
      "pbrMetallicRoughness": {
        "baseColorFactor": [
          0.5,
          0.45,
          0.35,
          1
        ],
        "metallicFactor": 0,
        "roughnessFactor": 0.85
      },
      "name": "mat_书架_11"
    },
    {
      "pbrMetallicRoughness": {
        "baseColorFactor": [
          0.85,
          0.8,
          0.72,
          1
        ],
        "metallicFactor": 0,
        "roughnessFactor": 0.85
      },
      "name": "mat_橱柜_12"
    },
    {
      "pbrMetallicRoughness": {
        "baseColorFactor": [
          0.92,
          0.92,
          0.95,
          1
        ],
        "metallicFactor": 0,
        "roughnessFactor": 0.85
      },
      "name": "mat_冰箱_13"
    },
    {
      "pbrMetallicRoughness": {
        "baseColorFactor": [
          0.65,
          0.58,
          0.52,
          1
        ],
        "metallicFactor": 0,
        "roughnessFactor": 0.85
      },
      "name": "mat_床_14"
    },
    {
      "pbrMetallicRoughness": {
        "baseColorFactor": [
          0.55,
          0.4,
          0.3,
          1
        ],
        "metallicFactor": 0,
        "roughnessFactor": 0.85
      },
      "name": "mat_衣柜_15"
    },
    {
      "pbrMetallicRoughness": {
        "baseColorFactor": [
          0.5,
          0.4,
          0.32,
          1
        ],
        "metallicFactor": 0,
        "roughnessFactor": 0.85
      },
      "name": "mat_床头柜_16"
    }
  ],
  "accessors": [
    {
      "bufferView": 0,
      "componentType": 5126,
      "count": 24,
      "type": "VEC3",
      "min": [
        -7,
        -1.4,
        0
      ],
      "max": [
        7,
        1.4,
        0
      ]
    },
    {
      "bufferView": 1,
      "componentType": 5123,
      "count": 36,
      "type": "SCALAR"
    },
    {
      "bufferView": 2,
      "componentType": 5126,
      "count": 24,
      "type": "VEC3",
      "min": [
        -7,
        -1.4,
        0
      ],
      "max": [
        7,
        1.4,
        0
      ]
    },
    {
      "bufferView": 3,
      "componentType": 5123,
      "count": 36,
      "type": "SCALAR"
    },
    {
      "bufferView": 4,
      "componentType": 5126,
      "count": 24,
      "type": "VEC3",
      "min": [
        0,
        -1.4,
        -3.5
      ],
      "max": [
        0,
        1.4,
        3.5
      ]
    },
    {
      "bufferView": 5,
      "componentType": 5123,
      "count": 36,
      "type": "SCALAR"
    },
    {
      "bufferView": 6,
      "componentType": 5126,
      "count": 24,
      "type": "VEC3",
      "min": [
        0,
        -1.4,
        -3.5
      ],
      "max": [
        0,
        1.4,
        3.5
      ]
    },
    {
      "bufferView": 7,
      "componentType": 5123,
      "count": 36,
      "type": "SCALAR"
    },
    {
      "bufferView": 8,
      "componentType": 5126,
      "count": 24,
      "type": "VEC3",
      "min": [
        0,
        -1.1,
        -0.10000000000000009
      ],
      "max": [
        0,
        1.1,
        0.10000000000000009
      ]
    },
    {
      "bufferView": 9,
      "componentType": 5123,
      "count": 36,
      "type": "SCALAR"
    },
    {
      "bufferView": 10,
      "componentType": 5126,
      "count": 24,
      "type": "VEC3",
      "min": [
        0,
        -1.1,
        -0.10000000000000009
      ],
      "max": [
        0,
        1.1,
        0.10000000000000009
      ]
    },
    {
      "bufferView": 11,
      "componentType": 5123,
      "count": 36,
      "type": "SCALAR"
    },
    {
      "bufferView": 12,
      "componentType": 5126,
      "count": 24,
      "type": "VEC3",
      "min": [
        -7,
        0,
        -3.5
      ],
      "max": [
        7,
        0,
        3.5
      ]
    },
    {
      "bufferView": 13,
      "componentType": 5123,
      "count": 36,
      "type": "SCALAR"
    },
    {
      "bufferView": 14,
      "componentType": 5126,
      "count": 24,
      "type": "VEC3",
      "min": [
        -7,
        0,
        -3.5
      ],
      "max": [
        7,
        0,
        3.5
      ]
    },
    {
      "bufferView": 15,
      "componentType": 5123,
      "count": 36,
      "type": "SCALAR"
    },
    {
      "bufferView": 16,
      "componentType": 5126,
      "count": 24,
      "type": "VEC3",
      "min": [
        -1.5,
        -0.45,
        -0.6
      ],
      "max": [
        1.5,
        0.45,
        0.6
      ]
    },
    {
      "bufferView": 17,
      "componentType": 5123,
      "count": 36,
      "type": "SCALAR"
    },
    {
      "bufferView": 18,
      "componentType": 5126,
      "count": 24,
      "type": "VEC3",
      "min": [
        -1.8,
        -0.39999999999999997,
        -0.20000000000000018
      ],
      "max": [
        1.8,
        0.39999999999999997,
        0.20000000000000018
      ]
    },
    {
      "bufferView": 19,
      "componentType": 5123,
      "count": 36,
      "type": "SCALAR"
    },
    {
      "bufferView": 20,
      "componentType": 5126,
      "count": 24,
      "type": "VEC3",
      "min": [
        -0.8,
        -0.15,
        -0.34999999999999987
      ],
      "max": [
        0.8,
        0.15,
        0.34999999999999987
      ]
    },
    {
      "bufferView": 21,
      "componentType": 5123,
      "count": 36,
      "type": "SCALAR"
    },
    {
      "bufferView": 22,
      "componentType": 5126,
      "count": 24,
      "type": "VEC3",
      "min": [
        -0.5,
        -1.1,
        -0.20000000000000018
      ],
      "max": [
        0.5,
        1.1,
        0.20000000000000018
      ]
    },
    {
      "bufferView": 23,
      "componentType": 5123,
      "count": 36,
      "type": "SCALAR"
    },
    {
      "bufferView": 24,
      "componentType": 5126,
      "count": 24,
      "type": "VEC3",
      "min": [
        -1.4,
        -0.45,
        -1
      ],
      "max": [
        1.4,
        0.45,
        1
      ]
    },
    {
      "bufferView": 25,
      "componentType": 5123,
      "count": 36,
      "type": "SCALAR"
    },
    {
      "bufferView": 26,
      "componentType": 5126,
      "count": 24,
      "type": "VEC3",
      "min": [
        -0.5,
        -1,
        -0.7
      ],
      "max": [
        0.5,
        1,
        0.7
      ]
    },
    {
      "bufferView": 27,
      "componentType": 5123,
      "count": 36,
      "type": "SCALAR"
    },
    {
      "bufferView": 28,
      "componentType": 5126,
      "count": 24,
      "type": "VEC3",
      "min": [
        -1.5,
        -0.15,
        -1.15
      ],
      "max": [
        1.5,
        0.15,
        1.15
      ]
    },
    {
      "bufferView": 29,
      "componentType": 5123,
      "count": 36,
      "type": "SCALAR"
    },
    {
      "bufferView": 30,
      "componentType": 5126,
      "count": 24,
      "type": "VEC3",
      "min": [
        -0.5,
        -1.3,
        -1.85
      ],
      "max": [
        0.5,
        1.3,
        1.85
      ]
    },
    {
      "bufferView": 31,
      "componentType": 5123,
      "count": 36,
      "type": "SCALAR"
    },
    {
      "bufferView": 32,
      "componentType": 5126,
      "count": 24,
      "type": "VEC3",
      "min": [
        -0.30000000000000004,
        -0.275,
        -0.30000000000000004
      ],
      "max": [
        0.30000000000000004,
        0.275,
        0.30000000000000004
      ]
    },
    {
      "bufferView": 33,
      "componentType": 5123,
      "count": 36,
      "type": "SCALAR"
    }
  ],
  "bufferViews": [
    {
      "buffer": 0,
      "byteOffset": 0,
      "byteLength": 288,
      "target": 34962
    },
    {
      "buffer": 0,
      "byteOffset": 288,
      "byteLength": 72,
      "target": 34963
    },
    {
      "buffer": 0,
      "byteOffset": 360,
      "byteLength": 288,
      "target": 34962
    },
    {
      "buffer": 0,
      "byteOffset": 648,
      "byteLength": 72,
      "target": 34963
    },
    {
      "buffer": 0,
      "byteOffset": 720,
      "byteLength": 288,
      "target": 34962
    },
    {
      "buffer": 0,
      "byteOffset": 1008,
      "byteLength": 72,
      "target": 34963
    },
    {
      "buffer": 0,
      "byteOffset": 1080,
      "byteLength": 288,
      "target": 34962
    },
    {
      "buffer": 0,
      "byteOffset": 1368,
      "byteLength": 72,
      "target": 34963
    },
    {
      "buffer": 0,
      "byteOffset": 1440,
      "byteLength": 288,
      "target": 34962
    },
    {
      "buffer": 0,
      "byteOffset": 1728,
      "byteLength": 72,
      "target": 34963
    },
    {
      "buffer": 0,
      "byteOffset": 1800,
      "byteLength": 288,
      "target": 34962
    },
    {
      "buffer": 0,
      "byteOffset": 2088,
      "byteLength": 72,
      "target": 34963
    },
    {
      "buffer": 0,
      "byteOffset": 2160,
      "byteLength": 288,
      "target": 34962
    },
    {
      "buffer": 0,
      "byteOffset": 2448,
      "byteLength": 72,
      "target": 34963
    },
    {
      "buffer": 0,
      "byteOffset": 2520,
      "byteLength": 288,
      "target": 34962
    },
    {
      "buffer": 0,
      "byteOffset": 2808,
      "byteLength": 72,
      "target": 34963
    },
    {
      "buffer": 0,
      "byteOffset": 2880,
      "byteLength": 288,
      "target": 34962
    },
    {
      "buffer": 0,
      "byteOffset": 3168,
      "byteLength": 72,
      "target": 34963
    },
    {
      "buffer": 0,
      "byteOffset": 3240,
      "byteLength": 288,
      "target": 34962
    },
    {
      "buffer": 0,
      "byteOffset": 3528,
      "byteLength": 72,
      "target": 34963
    },
    {
      "buffer": 0,
      "byteOffset": 3600,
      "byteLength": 288,
      "target": 34962
    },
    {
      "buffer": 0,
      "byteOffset": 3888,
      "byteLength": 72,
      "target": 34963
    },
    {
      "buffer": 0,
      "byteOffset": 3960,
      "byteLength": 288,
      "target": 34962
    },
    {
      "buffer": 0,
      "byteOffset": 4248,
      "byteLength": 72,
      "target": 34963
    },
    {
      "buffer": 0,
      "byteOffset": 4320,
      "byteLength": 288,
      "target": 34962
    },
    {
      "buffer": 0,
      "byteOffset": 4608,
      "byteLength": 72,
      "target": 34963
    },
    {
      "buffer": 0,
      "byteOffset": 4680,
      "byteLength": 288,
      "target": 34962
    },
    {
      "buffer": 0,
      "byteOffset": 4968,
      "byteLength": 72,
      "target": 34963
    },
    {
      "buffer": 0,
      "byteOffset": 5040,
      "byteLength": 288,
      "target": 34962
    },
    {
      "buffer": 0,
      "byteOffset": 5328,
      "byteLength": 72,
      "target": 34963
    },
    {
      "buffer": 0,
      "byteOffset": 5400,
      "byteLength": 288,
      "target": 34962
    },
    {
      "buffer": 0,
      "byteOffset": 5688,
      "byteLength": 72,
      "target": 34963
    },
    {
      "buffer": 0,
      "byteOffset": 5760,
      "byteLength": 288,
      "target": 34962
    },
    {
      "buffer": 0,
      "byteOffset": 6048,
      "byteLength": 72,
      "target": 34963
    }
  ],
  "buffers": [
    {
      "byteLength": 6120,
      "uri": "data:application/octet-stream;base64,"
    }
  ]
}